<svg width="800px" height="800px" version="1.1" viewBox="0 0 417 417" xml:space="preserve" xmlns="http://www.w3.org/2000/svg">

		<path d="m345 204c-32 16-74-3.7-82-38-0.85-19-31-11-40-29-17-17-21-45-11-66-15-6.8-18-29-28-36-39 1.9-76 16-107 41 20 18 15 55-9.2 67-11 11-32-1.8-38 5.8-23 68-3.6 147 49 196 52 51 135 67 203 38 28-12 52-30 72-53-23-15-23-53 0.25-69 11-9.6 32-2.1 27-23 2.9-17-28-14-34-31zm-212 131c-29 1.1-52-33-39-59 10-27 49-34 68-14 22 19 15 59-13 69-5.2 2.2-11 3.3-16 3.3zm28-151c-29 1.1-52-33-39-59 10-27 49-34 68-14 22 19 15 59-13 69-5.2 2.2-11 3.3-16 3.3zm87 131c-34 1.1-62-35-53-68 7.2-32 47-50 76-35 29 13 41 53 22 79-9.8 15-27 24-45 24z" style="fill:#d4b783"/>
		<path d="m160 163c19 1 30-25 16-38-13-14-39-3.3-38 16-0.24 12 10 22 22 22z" style="fill:#89634a"/>
		<path d="m132 314c19 1 30-25 16-38-13-14-39-3.3-38 16-0.24 12 10 22 22 22z" style="fill:#89634a"/>
		<path d="m70 106c0.52-13-10-22-16-5.8-6 9.5-25 32-1.8 27 10-1.9 18-11 18-22z" style="fill:#89634a"/>
		<path d="m355 296c-0.6 13 13 25 17 6.7 11-14 17-39-7.2-25-6 4-9.8 11-9.7 18z" style="fill:#89634a"/>
		<path d="m246 294c26 1.3 44-32 28-53-13-21-47-19-58 2.8-13 22 4.9 51 30 50z" style="fill:#89634a"/>
	<g style="fill:#784421">
		<path d="m192 115c20 23 5.9 63-24 68-15 3.2-31-2.4-40-14 18 25 61 18 71-10 6.2-14 3.5-32-6.7-43z" style="fill:#784421"/>
		<path d="m174 292c1.5 31-38 54-64 36-6.9-4.5-14-13-3.6-2.3 23 20 62 5.2 67-24 4.1-9.3-4-32-7-33 4.8 6.9 7.4 15 7.4 24z" style="fill:#784421"/>
		<path d="m300 260c1.3 35-36 63-69 52-10 0.26-37-26-18-8.9 26 22 71 11 83-21 7.9-18 4.6-41-8.5-56 7.9 9.5 12 22 12 34z" style="fill:#784421"/>
		<path d="m160 183c31 1.4 53-37 36-63-14-27-56-28-71-2.7-19 27 2 66 35 65zm0-64c38-0.049 19 61-12 40-18-11-8.8-41 12-40z" style="fill:#784421"/>
		<path d="m132 334c31 1.4 53-37 36-63-14-27-56-28-71-2.7-19 27 2 66 35 65zm0-64c38-0.049 19 61-12 40-18-11-8.8-41 12-40z" style="fill:#784421"/>
		<path d="m417 207c-5-18-34-9.3-41-29-11-24-35 8.9-53-3.6-19-5.9-29-27-28-46-12-11-38-4.4-47-24-13-17-3.4-37 2.1-54-13-11-30-24-30-44-12-12-33-3.1-49-2.6-83 14-153 83-168 166-16 78 18 162 82 208 66 50 163 53 233 8.4 61-37 100-107 98-179zm-355-117c23 15-9 52-22 34 6.1-12 14-24 22-34zm302 224c-25-13 3.8-54 19-36-5 13-11 25-19 36zm26-58c-28-11-61 15-56 45-2.9 17 28 27 8.2 39-53 56-142 73-213 41-72-31-119-112-110-190 5.1-14-0.75-55 23-43 29 4.2 54-27 44-54-2.4-12-20-20-2.7-28 32-28 74-45 117-46-1.3 20 29 29 20 47-10 34 17 73 53 75 2.1 37 44 65 79 51 14-2 24 22 42 22-0.44 14-2.4 28-5.9 41z" style="fill:#784421"/>
		<path d="m246 314c34 1.2 62-35 52-68-7.8-34-51-51-80-32-30 17-35 62-9.4 85 9.9 9.6 24 15 37 15zm0-88c26-1.3 44 32 28 53-13 22-51 19-60-5.8-9.8-22 7.6-48 31-47z" style="fill:#784421"/>
	</g>
</svg>
